<?xml version="1.0" encoding="UTF-8"?>
<svg id="_레이어_1" data-name="레이어 1" xmlns="http://www.w3.org/2000/svg" viewBox="0 0 217.69 62.36">
  <defs>
    <style>
      .cls-1 {
        fill: #000;
      }

      .cls-1, .cls-2 {
        stroke-width: 0px;
      }

      .cls-2 {
        fill: #fff;
      }
    </style>
  </defs>
  <rect class="cls-1" x="0" width="217.69" height="62.36" rx="10.21" ry="10.21"/>
  <g>
    <g>
      <path class="cls-2" d="M17.08,12.03l-5.05,14.67h2.55l1.05-3.4h5.51l1.05,3.4h2.57l-5.05-14.67h-2.65ZM16.29,21.17l2.09-6.75,2.11,6.75h-4.19Z"/>
      <path class="cls-2" d="M32.76,16.65c-.32-.39-.73-.69-1.21-.9-.48-.21-1-.31-1.57-.31-1.3,0-2.3.5-3.02,1.51-.72,1.01-1.07,2.42-1.07,4.25s.35,3.24,1.05,4.26c.7,1.01,1.69,1.52,2.96,1.52,1.34,0,2.36-.6,3.08-1.8v1.54h2.17v-15.6h-2.39v5.55ZM32.76,23.68c-.34.36-.67.63-1,.79-.33.16-.7.24-1.1.24-1.54,0-2.31-1.2-2.31-3.61s.74-3.53,2.21-3.53c.42,0,.82.09,1.21.26.38.18.72.43,1,.75v5.09Z"/>
      <path class="cls-2" d="M44.3,16.65c-.32-.39-.73-.69-1.21-.9-.48-.21-1-.31-1.57-.31-1.3,0-2.3.5-3.02,1.51-.72,1.01-1.07,2.42-1.07,4.25s.35,3.24,1.05,4.26c.7,1.01,1.69,1.52,2.96,1.52,1.34,0,2.36-.6,3.08-1.8v1.54h2.17v-15.6h-2.39v5.55ZM44.3,23.68c-.34.36-.67.63-1,.79-.33.16-.7.24-1.1.24-1.54,0-2.31-1.2-2.31-3.61s.74-3.53,2.21-3.53c.42,0,.82.09,1.21.26.39.18.72.43,1,.75v5.09Z"/>
      <path class="cls-2" d="M58.3,24.72c-.59,0-1.02-.15-1.29-.44-.26-.29-.4-.76-.4-1.41v-5.11h3.08v-2.07h-3.08v-3.06h-2.39v3.06h-1.74v2.07h1.74v5.51c0,2.39,1.23,3.59,3.69,3.59.68,0,1.32-.09,1.93-.28l-.36-2.03c-.41.11-.8.16-1.18.16Z"/>
      <path class="cls-2" d="M65.77,15.43c-1.54,0-2.73.49-3.56,1.47-.83.98-1.25,2.41-1.25,4.31s.41,3.32,1.24,4.3c.82.97,2.01,1.46,3.55,1.46s2.73-.49,3.56-1.46c.83-.97,1.25-2.4,1.25-4.3s-.41-3.33-1.24-4.31c-.82-.98-2.01-1.47-3.55-1.47ZM67.51,23.92c-.39.61-.98.91-1.76.91s-1.35-.3-1.74-.91c-.39-.61-.59-1.51-.59-2.72,0-2.42.78-3.63,2.35-3.63s2.33,1.21,2.33,3.63c0,1.2-.2,2.11-.59,2.72Z"/>
    </g>
    <g>
      <g>
        <polygon class="cls-2" points="138.73 35.35 135.91 45.82 132.78 35.35 130.03 35.35 126.88 45.86 124.04 35.35 121.12 35.35 125.4 50.36 128.24 50.36 131.38 39.77 134.53 50.36 137.31 50.36 141.54 35.35 138.73 35.35"/>
        <path class="cls-2" d="M150.47,39.77c-.86-1.03-2.28-1.69-3.87-1.69-3.04,0-5.96,2.28-5.96,6.27s3.02,6.25,5.92,6.25c1.58,0,3.02-.7,3.91-1.81v1.56h2.78v-12.03h-2.78v1.44ZM147.02,48.06c-2.06,0-3.64-1.65-3.64-3.74s1.58-3.7,3.64-3.7,3.6,1.67,3.6,3.7-1.54,3.74-3.6,3.74Z"/>
        <rect class="cls-2" x="155.04" y="35.14" width="2.8" height="15.22"/>
        <rect class="cls-2" x="159.75" y="35.14" width="2.8" height="15.22"/>
        <path class="cls-2" d="M170.22,38.08c-3.52,0-6.25,2.78-6.25,6.29s2.57,6.23,6.35,6.23c2.67,0,4.57-1.32,5.61-3.25l-2.28-1.32c-.58,1.28-1.79,2.12-3.33,2.12-1.97,0-3.33-1.15-3.7-2.84h9.79v-1.05c0-3.56-2.61-6.19-6.19-6.19ZM166.76,43c.49-1.46,1.79-2.47,3.46-2.47s2.96.86,3.37,2.47h-6.83Z"/>
        <path class="cls-2" d="M181.76,34.59l-2.8,1.91v1.83h-2.06v2.49h2.06v4.52c0,3.83,1.13,5.02,4.85,5.02h.39v-2.61c-2.16,0-2.45-.33-2.45-2.43v-4.5h2.45v-2.49h-2.45v-3.74Z"/>
      </g>
      <g>
        <polygon class="cls-2" points="93.17 35.77 93.36 46.79 93.29 46.79 90.06 35.77 84.85 35.77 84.85 49.67 88.3 49.67 88.11 38.26 88.18 38.26 91.65 49.67 96.65 49.67 96.65 35.77 93.17 35.77"/>
        <polygon class="cls-2" points="27.07 35.77 24.46 49.81 28.26 49.81 30.18 37.07 30.26 37.07 32.13 49.81 35.9 49.81 33.31 35.77 27.07 35.77"/>
        <polygon class="cls-2" points="48.29 35.77 46.55 46.51 46.47 46.51 44.74 35.77 39.02 35.77 38.71 49.81 42.22 49.81 42.31 37.19 42.39 37.19 44.73 49.81 48.3 49.81 50.64 37.19 50.72 37.19 50.81 49.81 54.32 49.81 54.01 35.77 48.29 35.77"/>
        <path class="cls-2" d="M18.55,45.85c.14.34.09.78.03,1.04-.11.47-.43.95-1.37.95-.88,0-1.41-.51-1.41-1.27v-1.36h-3.77v1.08c0,3.13,2.46,4.08,5.1,4.08s4.63-.87,4.96-3.21c.17-1.21.05-2.01-.02-2.3-.59-2.94-5.92-3.82-6.32-5.46-.07-.29-.05-.58-.02-.74.1-.45.4-.94,1.28-.94.82,0,1.3.51,1.3,1.27v.87h3.5v-.99c0-3.06-2.75-3.54-4.74-3.54-2.5,0-4.54.83-4.91,3.12-.1.63-.12,1.19.03,1.89.61,2.87,5.6,3.7,6.32,5.52"/>
        <path class="cls-2" d="M64.21,45.82c.13.34.09.77.03,1.03-.11.46-.43.93-1.35.93-.87,0-1.4-.5-1.4-1.26v-1.35h-3.73v1.07c0,3.1,2.44,4.04,5.05,4.04s4.58-.86,4.91-3.18c.17-1.2.05-1.99-.02-2.28-.59-2.91-5.86-3.78-6.25-5.41-.07-.28-.05-.57-.02-.73.1-.45.4-.93,1.27-.93.82,0,1.29.5,1.29,1.26v.86h3.47v-.98c0-3.03-2.72-3.5-4.69-3.5-2.47,0-4.49.82-4.86,3.09-.1.62-.12,1.18.03,1.87.6,2.84,5.54,3.66,6.26,5.46"/>
        <path class="cls-2" d="M76,47.71c.98,0,1.28-.67,1.35-1.02.03-.15.03-.36.03-.54v-10.39h3.55v10.07c0,.26-.02.79-.04.92-.24,2.62-2.32,3.47-4.9,3.47s-4.65-.85-4.9-3.47c-.01-.14-.04-.67-.03-.92v-10.07h3.55v10.39c0,.18,0,.38.03.54.07.35.37,1.02,1.35,1.02"/>
        <path class="cls-2" d="M105.29,47.56c1.02,0,1.37-.64,1.44-1.02.03-.16.04-.35.03-.53v-2.04h-1.44v-2.05h4.97v3.76c0,.26,0,.46-.05.92-.23,2.56-2.45,3.47-4.94,3.47s-4.71-.91-4.94-3.47c-.04-.47-.05-.66-.05-.92v-5.91c0-.25.03-.69.06-.92.31-2.63,2.44-3.47,4.93-3.47s4.67.84,4.93,3.47c.05.45.03.92.03.92v.47h-3.54v-.79s0-.33-.04-.54c-.06-.31-.33-1.02-1.4-1.02s-1.32.67-1.4,1.02c-.04.18-.06.44-.06.66v6.42c0,.18,0,.37.03.53.07.38.42,1.02,1.44,1.02"/>
      </g>
    </g>
  </g>
  <path class="cls-2" d="M205.6,30.85c-.34-.41-.71-.81-1.1-1.18-.41-.37-.8-.76-1.19-1.15-.39-.38-.78-.76-1.19-1.16-.41-.37-.82-.76-1.22-1.15-.39-.39-.78-.78-1.19-1.15-.39-.39-.78-.79-1.19-1.18-.38-.39-.78-.79-1.19-1.18l-.58-.59c-.18-.2-.43-.36-.73-.47h-.18c-.24.04-.43.12-.55.24-.41.39-.8.79-1.19,1.18l-.25.36c-.1.3-.05.54.15.74.39.42.77.82,1.16,1.21.41.37.8.76,1.19,1.15.38.39.78.79,1.19,1.18.39.38.78.76,1.19,1.16.38.39.78.79,1.19,1.18.39.4.77.79,1.16,1.19l-.27.3c-.41.39-.8.78-1.19,1.15-.41.39-.8.79-1.19,1.18-.41.4-.8.79-1.19,1.18-.41.39-.8.79-1.19,1.18-.38.4-.78.79-1.19,1.19l-.58.56-.4.47-.03.59.18.32.06.03c.39.4.78.79,1.19,1.18.14.14.37.21.67.21l.24-.06c.26-.16.51-.35.73-.59.24-.26.5-.51.76-.77l.43-.42c.39-.37.78-.76,1.19-1.15.41-.39.8-.78,1.19-1.15.41-.4.8-.79,1.19-1.19.41-.37.8-.76,1.19-1.15.41-.39.8-.78,1.19-1.15.41-.4.8-.78,1.19-1.15l.34-.42.06-.62-.06-.09Z"/>
</svg>