<?xml version="1.0" encoding="UTF-8"?>
<svg id="_레이어_1" data-name="레이어 1" xmlns="http://www.w3.org/2000/svg" viewBox="0 0 399.77 62.36">
  <defs>
    <style>
      .cls-1 {
        fill: #000;
      }

      .cls-1, .cls-2 {
        stroke-width: 0px;
      }

      .cls-2 {
        fill: #fff;
      }
    </style>
  </defs>
  <rect class="cls-1" width="399.77" height="62.36" rx="10.39" ry="10.39"/>
  <g>
    <polygon class="cls-2" points="293.68 20.82 289.78 35.29 285.46 20.82 281.65 20.82 277.3 35.35 273.38 20.82 269.34 20.82 275.26 41.57 279.18 41.57 283.53 26.93 287.88 41.57 291.72 41.57 297.57 20.82 293.68 20.82"/>
    <path class="cls-2" d="M309.91,26.93c-1.19-1.42-3.16-2.33-5.34-2.33-4.21,0-8.24,3.16-8.24,8.67s4.18,8.64,8.19,8.64c2.19,0,4.18-.97,5.4-2.5v2.16h3.84v-16.63h-3.84v1.99ZM305.14,38.39c-2.84,0-5.03-2.27-5.03-5.17s2.19-5.12,5.03-5.12,4.97,2.3,4.97,5.12-2.13,5.17-4.97,5.17Z"/>
    <rect class="cls-2" x="316.23" y="20.54" width="3.87" height="21.04"/>
    <rect class="cls-2" x="322.74" y="20.54" width="3.87" height="21.04"/>
    <path class="cls-2" d="M337.21,24.6c-4.86,0-8.64,3.84-8.64,8.7s3.55,8.61,8.78,8.61c3.7,0,6.31-1.82,7.76-4.49l-3.16-1.82c-.8,1.76-2.47,2.93-4.61,2.93-2.73,0-4.61-1.59-5.12-3.92h13.53v-1.45c0-4.92-3.61-8.56-8.56-8.56ZM332.43,31.4c.68-2.02,2.47-3.41,4.78-3.41s4.09,1.19,4.66,3.41h-9.44Z"/>
    <path class="cls-2" d="M353.16,19.77l-3.87,2.64v2.53h-2.84v3.44h2.84v6.25c0,5.29,1.56,6.94,6.71,6.94h.54v-3.61c-2.98,0-3.38-.45-3.38-3.35v-6.23h3.38v-3.44h-3.38v-5.17Z"/>
    <polygon class="cls-2" points="230.98 36.64 230.87 36.64 226.41 21.4 219.21 21.4 219.21 40.61 223.98 40.61 223.71 24.85 223.82 24.85 228.61 40.61 235.52 40.61 235.52 21.4 230.71 21.4 230.98 36.64"/>
    <polygon class="cls-2" points="139.34 21.4 135.74 40.81 140.99 40.81 143.65 23.2 143.75 23.2 146.34 40.81 151.56 40.81 147.98 21.4 139.34 21.4"/>
    <polygon class="cls-2" points="168.67 21.4 166.28 36.24 166.17 36.24 163.78 21.4 155.86 21.4 155.43 40.81 160.29 40.81 160.41 23.36 160.52 23.36 163.76 40.81 168.69 40.81 171.93 23.37 172.04 23.36 172.16 40.81 177.01 40.81 176.58 21.4 168.67 21.4"/>
    <path class="cls-2" d="M123.72,26.4c-.09-.39-.07-.8-.02-1.02.14-.62.56-1.3,1.77-1.3,1.14,0,1.8.7,1.8,1.76v1.2h4.84v-1.37c0-4.23-3.8-4.89-6.54-4.89-3.45,0-6.27,1.14-6.79,4.31-.14.87-.16,1.64.04,2.62.84,3.97,7.74,5.11,8.74,7.63h0c.19.47.13,1.07.04,1.44-.16.65-.6,1.31-1.89,1.31-1.21,0-1.95-.7-1.95-1.76v-1.88h-5.21v1.5c0,4.33,3.4,5.64,7.05,5.64s6.4-1.2,6.86-4.44c.24-1.68.06-2.77-.02-3.18-.82-4.06-8.18-5.28-8.73-7.55Z"/>
    <path class="cls-2" d="M186.87,26.45c-.09-.39-.07-.79-.02-1.01.14-.62.56-1.29,1.76-1.29,1.13,0,1.79.69,1.79,1.74v1.19h4.8v-1.35c0-4.19-3.76-4.84-6.48-4.84-3.41,0-6.21,1.13-6.72,4.26-.14.86-.16,1.62.04,2.59.83,3.93,7.66,5.06,8.65,7.55h0c.19.47.13,1.06.04,1.42-.16.64-.59,1.29-1.87,1.29-1.2,0-1.93-.69-1.93-1.74v-1.86h-5.16v1.48c0,4.29,3.37,5.58,6.98,5.58s6.34-1.18,6.79-4.39c.23-1.66.06-2.74-.02-3.15-.81-4.02-8.1-5.22-8.65-7.47Z"/>
    <path class="cls-2" d="M208.88,35.76c0,.25,0,.53-.05.74-.1.48-.51,1.41-1.86,1.41h0c-1.35,0-1.77-.93-1.86-1.41-.04-.21-.05-.49-.05-.74v-14.36h-4.91v13.92c0,.36.03,1.09.04,1.28.34,3.62,3.2,4.8,6.77,4.8s6.43-1.17,6.77-4.8c.02-.19.06-.92.05-1.28v-13.92h-4.91v14.36Z"/>
    <path class="cls-2" d="M247.5,32.74h1.99v2.82c0,.25,0,.52-.05.74-.09.52-.58,1.41-1.98,1.41h0c-1.4,0-1.89-.89-1.99-1.41-.04-.22-.05-.49-.04-.74v-8.87c0-.32.02-.66.08-.92.11-.48.52-1.41,1.93-1.41,1.48,0,1.85.98,1.94,1.41.06.28.06.74.06.74v1.09h4.9v-.65s.02-.66-.04-1.28c-.36-3.64-3.37-4.8-6.81-4.8s-6.38,1.17-6.81,4.8c-.04.32-.08.93-.08,1.28v8.17c0,.37,0,.63.07,1.28.32,3.54,3.39,4.8,6.83,4.8s6.5-1.26,6.83-4.8c.06-.65.07-.91.07-1.28v-5.2h-6.88v2.83Z"/>
    <path class="cls-2" d="M28.1,21.11l-6.97,20.28h3.53l1.46-4.71h7.62l1.46,4.71h3.56l-6.97-20.28h-3.67ZM27.01,33.74l2.89-9.33,2.91,9.33h-5.8Z"/>
    <path class="cls-2" d="M49.78,27.5c-.45-.54-1-.96-1.67-1.25-.66-.29-1.39-.43-2.17-.43-1.79,0-3.18.7-4.17,2.09-.99,1.39-1.48,3.35-1.48,5.87s.48,4.48,1.46,5.88c.97,1.4,2.33,2.1,4.09,2.1,1.85,0,3.27-.83,4.26-2.49v2.13h3v-21.57h-3.31v7.67ZM49.78,37.22c-.47.5-.93.87-1.39,1.09-.46.22-.97.34-1.53.34-2.13,0-3.19-1.66-3.19-4.99s1.02-4.87,3.05-4.87c.58,0,1.13.12,1.67.36.53.24.99.59,1.39,1.04v7.03Z"/>
    <path class="cls-2" d="M65.74,27.5c-.45-.54-1-.96-1.67-1.25-.66-.29-1.39-.43-2.17-.43-1.79,0-3.18.7-4.17,2.09-.99,1.39-1.48,3.35-1.48,5.87s.48,4.48,1.46,5.88c.97,1.4,2.33,2.1,4.09,2.1,1.85,0,3.27-.83,4.26-2.49v2.13h3v-21.57h-3.31v7.67ZM65.74,37.22c-.47.5-.93.87-1.39,1.09-.46.22-.97.34-1.53.34-2.13,0-3.19-1.66-3.19-4.99s1.02-4.87,3.05-4.87c.58,0,1.13.12,1.67.36.53.24.99.59,1.39,1.04v7.03Z"/>
    <path class="cls-2" d="M85.08,38.64c-.82,0-1.41-.2-1.78-.6-.36-.4-.55-1.05-.55-1.95v-7.06h4.26v-2.86h-4.26v-4.23h-3.31v4.23h-2.41v2.86h2.41v7.62c0,3.31,1.7,4.96,5.1,4.96.93,0,1.82-.13,2.66-.39l-.5-2.8c-.56.15-1.1.22-1.62.22Z"/>
    <path class="cls-2" d="M95.41,25.82c-2.13,0-3.77.68-4.92,2.03-1.15,1.35-1.72,3.34-1.72,5.95s.57,4.59,1.71,5.94c1.14,1.34,2.77,2.02,4.9,2.02s3.77-.67,4.92-2.02c1.15-1.34,1.72-3.32,1.72-5.94s-.57-4.6-1.71-5.95c-1.14-1.35-2.77-2.03-4.9-2.03ZM97.82,37.55c-.54.84-1.35,1.26-2.44,1.26s-1.87-.42-2.41-1.26c-.54-.84-.81-2.09-.81-3.75,0-3.34,1.08-5.01,3.25-5.01s3.22,1.67,3.22,5.01c0,1.66-.27,2.91-.81,3.75Z"/>
    <path class="cls-2" d="M378.92,30.66c-.35-.42-.72-.82-1.12-1.2-.41-.38-.81-.77-1.21-1.17-.39-.38-.8-.77-1.21-1.18-.42-.38-.83-.77-1.24-1.17-.39-.4-.8-.79-1.21-1.17-.39-.4-.8-.8-1.21-1.2-.39-.4-.79-.8-1.21-1.2l-.59-.6c-.19-.2-.44-.36-.75-.48h-.19c-.25.04-.43.12-.56.24-.41.4-.82.8-1.21,1.2l-.25.36c-.1.3-.05.55.16.75.39.42.79.83,1.18,1.24.41.38.82.77,1.21,1.17.39.4.8.8,1.21,1.2.39.38.8.77,1.21,1.18.39.4.79.8,1.21,1.2.39.4.79.8,1.18,1.21l-.28.3c-.41.4-.82.79-1.21,1.17-.41.4-.82.8-1.21,1.2-.42.4-.82.8-1.21,1.21-.41.4-.82.8-1.21,1.2-.39.4-.8.8-1.21,1.21l-.59.57-.4.48-.03.6.19.33.06.03c.39.4.8.8,1.21,1.2.14.14.37.21.68.21l.25-.06c.27-.16.52-.36.74-.6.25-.26.51-.52.78-.78l.43-.42c.39-.38.8-.77,1.21-1.17.41-.4.82-.79,1.21-1.17.41-.4.81-.8,1.21-1.21.41-.38.81-.77,1.21-1.17.41-.4.82-.79,1.21-1.17.41-.4.82-.79,1.21-1.17l.34-.42.06-.63-.06-.09Z"/>
  </g>
</svg>