<?xml version="1.0" encoding="UTF-8"?>
<svg id="_레이어_1" data-name="레이어 1" xmlns="http://www.w3.org/2000/svg" viewBox="0 0 143.02 62.36">
  <defs>
    <style>
      .cls-1 {
        fill: #000;
      }

      .cls-1, .cls-2 {
        stroke-width: 0px;
      }

      .cls-2 {
        fill: #fff;
      }
    </style>
  </defs>
  <rect class="cls-2" width="143.02" height="62.36" rx="10.21" ry="10.21"/>
  <path class="cls-1" d="M130.93,30.85c-.34-.41-.71-.81-1.1-1.18-.41-.37-.8-.76-1.19-1.15-.39-.38-.78-.76-1.19-1.16-.41-.37-.82-.76-1.22-1.15-.39-.39-.78-.78-1.19-1.15-.39-.39-.78-.79-1.19-1.18-.38-.39-.78-.79-1.19-1.18l-.58-.59c-.18-.2-.43-.36-.73-.47h-.18c-.24.04-.43.12-.55.24-.41.39-.8.79-1.19,1.18l-.25.36c-.1.3-.05.54.15.74.39.42.77.82,1.16,1.21.41.37.8.76,1.19,1.15.38.39.78.79,1.19,1.18.39.38.78.76,1.19,1.16.38.39.78.79,1.19,1.18.39.4.77.79,1.16,1.19l-.27.3c-.41.39-.8.78-1.19,1.15-.41.39-.8.79-1.19,1.18-.41.4-.8.79-1.19,1.18-.41.39-.8.79-1.19,1.18-.38.4-.78.79-1.19,1.19l-.58.56-.4.47-.03.59.18.32.06.03c.39.4.78.79,1.19,1.18.14.14.37.21.67.21l.24-.06c.26-.16.51-.35.73-.59.24-.26.5-.51.76-.77l.43-.42c.39-.37.78-.76,1.19-1.15.41-.39.8-.78,1.19-1.15.41-.4.8-.79,1.19-1.19.41-.37.8-.76,1.19-1.15.41-.39.8-.78,1.19-1.15.41-.4.8-.78,1.19-1.15l.34-.42.06-.62-.06-.09Z"/>
  <g>
    <g>
      <path class="cls-1" d="M10.76,35.42h2.9l2.82,10.44,3.13-10.44h2.74l3.1,10.4,2.8-10.4h2.8l-4.21,14.91h-2.76l-3.13-10.52-3.12,10.52h-2.82l-4.25-14.91Z"/>
      <path class="cls-1" d="M30.15,44.36c0-3.96,2.9-6.23,5.92-6.23,1.57,0,2.98.65,3.84,1.68v-1.43h2.76v11.95h-2.76v-1.55c-.88,1.1-2.31,1.8-3.88,1.8-2.88,0-5.88-2.31-5.88-6.21ZM40.05,44.32c0-2.02-1.53-3.68-3.57-3.68s-3.61,1.61-3.61,3.68,1.57,3.72,3.61,3.72,3.57-1.65,3.57-3.72Z"/>
      <path class="cls-1" d="M44.44,35.21h2.78v15.11h-2.78v-15.11Z"/>
      <path class="cls-1" d="M49.12,35.21h2.78v15.11h-2.78v-15.11Z"/>
      <path class="cls-1" d="M53.31,44.38c0-3.49,2.72-6.25,6.21-6.25s6.15,2.61,6.15,6.15v1.04h-9.72c.37,1.67,1.72,2.82,3.68,2.82,1.53,0,2.74-.84,3.31-2.1l2.27,1.31c-1.04,1.92-2.92,3.23-5.58,3.23-3.76,0-6.31-2.74-6.31-6.19ZM56.09,43.02h6.78c-.41-1.59-1.63-2.45-3.35-2.45s-2.94,1-3.43,2.45Z"/>
      <path class="cls-1" d="M66.16,38.38h2.04v-1.82l2.78-1.9v3.72h2.43v2.47h-2.43v4.47c0,2.08.29,2.41,2.43,2.41v2.59h-.39c-3.7,0-4.82-1.18-4.82-4.98v-4.49h-2.04v-2.47Z"/>
    </g>
    <g>
      <polygon class="cls-1" points="92.53 12.47 92.72 23.42 92.64 23.42 89.44 12.47 84.26 12.47 84.26 26.27 87.69 26.27 87.5 14.95 87.57 14.95 91.02 26.27 95.98 26.27 95.98 12.47 92.53 12.47"/>
      <polygon class="cls-1" points="26.88 12.47 24.3 26.42 28.07 26.42 29.97 13.77 30.05 13.76 31.91 26.42 35.66 26.42 33.09 12.47 26.88 12.47"/>
      <polygon class="cls-1" points="47.95 12.47 46.23 23.14 46.16 23.14 44.44 12.47 38.75 12.47 38.44 26.42 41.93 26.42 42.02 13.88 42.1 13.88 44.43 26.42 47.96 26.42 50.3 13.88 50.37 13.88 50.46 26.42 53.95 26.42 53.64 12.47 47.95 12.47"/>
      <path class="cls-1" d="M18.43,22.48c.14.34.09.77.03,1.03-.11.46-.43.94-1.36.94-.87,0-1.4-.5-1.4-1.26v-1.35h-3.74v1.08c0,3.11,2.45,4.05,5.07,4.05s4.6-.86,4.93-3.19c.17-1.2.04-1.99-.01-2.29-.59-2.92-5.88-3.79-6.27-5.42-.07-.28-.05-.58-.01-.73.1-.45.4-.94,1.27-.94.82,0,1.3.5,1.3,1.26v.86h3.48v-.98c0-3.04-2.73-3.51-4.7-3.51-2.48,0-4.51.82-4.88,3.1-.1.62-.11,1.18.03,1.88.6,2.85,5.56,3.67,6.28,5.48"/>
      <path class="cls-1" d="M63.77,22.46c.13.34.09.76.03,1.02-.11.46-.42.93-1.34.93-.86,0-1.39-.5-1.39-1.25v-1.34h-3.71v1.06c0,3.08,2.42,4.01,5.02,4.01s4.55-.85,4.88-3.16c.17-1.19.04-1.97-.01-2.26-.58-2.89-5.82-3.75-6.21-5.37-.07-.28-.05-.57-.02-.72.1-.44.4-.93,1.26-.93.81,0,1.28.5,1.28,1.25v.85h3.45v-.97c0-3.01-2.7-3.48-4.66-3.48-2.45,0-4.46.81-4.82,3.06-.1.62-.11,1.17.03,1.86.6,2.82,5.5,3.64,6.22,5.43"/>
      <path class="cls-1" d="M75.48,24.33c.97,0,1.27-.67,1.34-1.01.03-.15.03-.35.03-.53v-10.32h3.53v10c0,.26-.02.78-.04.92-.24,2.6-2.3,3.45-4.86,3.45s-4.62-.84-4.87-3.45c-.01-.14-.04-.66-.03-.92v-10h3.53v10.32c0,.18,0,.38.03.53.07.34.37,1.01,1.34,1.01"/>
      <path class="cls-1" d="M104.56,24.19c1.01,0,1.36-.64,1.43-1.01.03-.16.04-.35.03-.53v-2.03h-1.43v-2.03h4.94v3.74c0,.26,0,.45-.05.92-.23,2.54-2.43,3.45-4.9,3.45s-4.67-.91-4.91-3.45c-.04-.46-.05-.66-.05-.92v-5.87c0-.25.03-.68.06-.92.31-2.61,2.42-3.45,4.89-3.45s4.64.83,4.89,3.45c.04.44.03.92.03.92v.46h-3.52v-.78s0-.33-.04-.53c-.06-.31-.33-1.01-1.39-1.01s-1.31.67-1.39,1.01c-.04.18-.06.43-.06.66v6.38c0,.18,0,.37.03.53.07.37.42,1.01,1.43,1.01"/>
    </g>
  </g>
</svg>