<?xml version="1.0" encoding="UTF-8"?>
<svg id="_레이어_1" data-name="레이어 1" xmlns="http://www.w3.org/2000/svg" viewBox="0 0 302 62.36">
  <defs>
    <style>
      .cls-1 {
        fill: #000;
      }

      .cls-1, .cls-2 {
        stroke-width: 0px;
      }

      .cls-2 {
        fill: #fff;
      }
    </style>
  </defs>
  <rect class="cls-1" width="302" height="62.36" rx="10.39" ry="10.39"/>
  <g>
    <polygon class="cls-2" points="195.9 20.82 192.01 35.29 187.69 20.82 183.88 20.82 179.53 35.34 175.61 20.82 171.57 20.82 177.48 41.57 181.41 41.57 185.75 26.93 190.1 41.57 193.94 41.57 199.8 20.82 195.9 20.82"/>
    <path class="cls-2" d="M212.14,26.93c-1.19-1.42-3.16-2.33-5.34-2.33-4.21,0-8.24,3.16-8.24,8.67s4.18,8.64,8.19,8.64c2.19,0,4.18-.97,5.4-2.5v2.16h3.84v-16.63h-3.84v1.99ZM207.36,38.39c-2.84,0-5.03-2.27-5.03-5.17s2.19-5.12,5.03-5.12,4.97,2.3,4.97,5.12-2.13,5.17-4.97,5.17Z"/>
    <rect class="cls-2" x="218.45" y="20.53" width="3.87" height="21.04"/>
    <rect class="cls-2" x="224.96" y="20.53" width="3.87" height="21.04"/>
    <path class="cls-2" d="M239.43,24.6c-4.86,0-8.64,3.84-8.64,8.7s3.55,8.61,8.78,8.61c3.7,0,6.31-1.82,7.76-4.49l-3.16-1.82c-.8,1.76-2.47,2.93-4.61,2.93-2.73,0-4.61-1.59-5.12-3.92h13.53v-1.45c0-4.92-3.61-8.56-8.56-8.56ZM234.66,31.39c.68-2.02,2.47-3.41,4.78-3.41s4.09,1.19,4.66,3.41h-9.44Z"/>
    <path class="cls-2" d="M255.38,19.77l-3.87,2.64v2.53h-2.84v3.44h2.84v6.25c0,5.29,1.56,6.94,6.71,6.94h.54v-3.61c-2.98,0-3.38-.45-3.38-3.35v-6.23h3.38v-3.44h-3.38v-5.17Z"/>
    <polygon class="cls-2" points="133.2 36.63 133.1 36.63 128.64 21.4 121.43 21.4 121.43 40.61 126.2 40.61 125.94 24.85 126.04 24.85 130.83 40.61 137.75 40.61 137.75 21.4 132.94 21.4 133.2 36.63"/>
    <polygon class="cls-2" points="41.57 21.4 37.97 40.81 43.22 40.81 45.87 23.2 45.98 23.19 48.57 40.81 53.78 40.81 50.2 21.4 41.57 21.4"/>
    <polygon class="cls-2" points="70.9 21.4 68.5 36.24 68.39 36.24 66 21.4 58.09 21.4 57.66 40.81 62.52 40.81 62.64 23.36 62.74 23.36 65.99 40.81 70.91 40.81 74.15 23.36 74.26 23.36 74.38 40.81 79.24 40.81 78.81 21.4 70.9 21.4"/>
    <path class="cls-2" d="M25.95,26.4c-.09-.39-.07-.8-.02-1.02.14-.62.56-1.3,1.77-1.3,1.14,0,1.8.7,1.8,1.76v1.2h4.84v-1.37c0-4.23-3.8-4.89-6.54-4.89-3.45,0-6.27,1.14-6.79,4.31-.14.87-.16,1.64.04,2.62.84,3.97,7.74,5.11,8.74,7.63h0c.19.47.13,1.07.04,1.44-.16.65-.6,1.31-1.89,1.31-1.21,0-1.95-.7-1.95-1.76v-1.88h-5.21v1.5c0,4.33,3.4,5.64,7.05,5.64s6.4-1.2,6.86-4.44c.24-1.68.06-2.77-.02-3.18-.82-4.06-8.18-5.28-8.73-7.55Z"/>
    <path class="cls-2" d="M89.09,26.45c-.09-.39-.07-.79-.02-1.01.14-.62.56-1.29,1.76-1.29,1.13,0,1.79.69,1.79,1.74v1.19h4.8v-1.35c0-4.19-3.76-4.84-6.48-4.84-3.41,0-6.21,1.13-6.72,4.26-.14.86-.16,1.62.04,2.59.83,3.93,7.66,5.06,8.65,7.55h0c.19.47.13,1.06.04,1.42-.16.64-.59,1.29-1.87,1.29-1.2,0-1.93-.69-1.93-1.74v-1.86h-5.16v1.48c0,4.29,3.37,5.58,6.98,5.58s6.34-1.19,6.79-4.39c.23-1.66.06-2.74-.02-3.15-.81-4.02-8.1-5.22-8.65-7.47Z"/>
    <path class="cls-2" d="M111.11,35.75c0,.25,0,.53-.05.74-.1.48-.51,1.41-1.86,1.41h0c-1.35,0-1.77-.93-1.86-1.41-.04-.21-.05-.49-.05-.74v-14.36h-4.91v13.92c0,.36.03,1.09.04,1.28.34,3.62,3.2,4.8,6.77,4.8s6.43-1.17,6.77-4.8c.02-.19.06-.92.05-1.28v-13.92h-4.91v14.36Z"/>
    <path class="cls-2" d="M149.73,32.74h1.99v2.82c0,.25,0,.52-.05.74-.09.52-.58,1.41-1.98,1.41h0c-1.4,0-1.89-.89-1.99-1.41-.04-.22-.05-.49-.04-.74v-8.87c0-.32.02-.66.08-.92.11-.48.52-1.41,1.93-1.41,1.48,0,1.85.98,1.94,1.41.06.28.06.74.06.74v1.09h4.9v-.65s.02-.66-.04-1.28c-.36-3.64-3.37-4.8-6.81-4.8s-6.38,1.17-6.81,4.8c-.04.32-.08.93-.08,1.28v8.17c0,.37,0,.63.07,1.28.32,3.54,3.39,4.8,6.83,4.8s6.5-1.26,6.83-4.8c.06-.65.07-.91.07-1.28v-5.2h-6.88v2.83Z"/>
    <path class="cls-2" d="M281.15,30.66c-.35-.42-.72-.82-1.12-1.2-.41-.38-.81-.77-1.21-1.17-.39-.38-.8-.77-1.21-1.18-.42-.38-.83-.77-1.24-1.17-.39-.4-.8-.79-1.21-1.17-.39-.4-.8-.8-1.21-1.2-.39-.4-.79-.8-1.21-1.2l-.59-.6c-.19-.2-.44-.36-.75-.48h-.19c-.25.04-.43.12-.56.24-.41.4-.82.8-1.21,1.2l-.25.36c-.1.3-.05.55.16.75.39.42.79.83,1.18,1.24.41.38.82.77,1.21,1.17.39.4.8.8,1.21,1.2.39.38.8.77,1.21,1.18.39.4.79.8,1.21,1.2.39.4.79.8,1.18,1.21l-.28.3c-.41.4-.82.79-1.21,1.17-.41.4-.82.8-1.21,1.2-.42.4-.82.8-1.21,1.21-.41.4-.82.8-1.21,1.2-.39.4-.8.8-1.21,1.21l-.59.57-.4.48-.03.6.19.33.06.03c.39.4.8.8,1.21,1.2.14.14.37.21.68.21l.25-.06c.27-.16.52-.36.74-.6.25-.26.51-.52.78-.78l.43-.42c.39-.38.8-.77,1.21-1.17.41-.4.82-.79,1.21-1.17.41-.4.81-.8,1.21-1.21.41-.38.82-.77,1.21-1.18.41-.4.82-.79,1.21-1.17.41-.4.82-.79,1.21-1.17l.34-.42.06-.63-.06-.09Z"/>
  </g>
</svg>